<svg id="Layer_1" data-name="Layer 1" xmlns="http://www.w3.org/2000/svg" viewBox="0 0 498.53 498.53"><title>badges</title><circle id="BADGE" cx="249.26" cy="249.26" r="239.26" style="fill:none;stroke:#fff;stroke-miterlimit:10;stroke-width:20px"/><g id="iPhone"><path d="M316.76,79.61H195.24A38.54,38.54,0,0,0,156.6,118V398.06a38.55,38.55,0,0,0,38.64,38.34H316.76a38.55,38.55,0,0,0,38.65-38.34V118A38.53,38.53,0,0,0,316.76,79.61Zm25.88,318.45a25.75,25.75,0,0,1-25.88,25.56H195.24a25.74,25.74,0,0,1-25.86-25.56V118h0a25.75,25.75,0,0,1,25.87-25.56H316.76A25.75,25.75,0,0,1,342.64,118ZM329.5,117.16h-147a3.19,3.19,0,0,0-3.2,3.19V368.59a3.2,3.2,0,0,0,3.2,3.2h147a3.2,3.2,0,0,0,3.2-3.2V120.35A3.19,3.19,0,0,0,329.5,117.16Zm-3.19,248.23H185.71V123.54H326.3S326.3,365.39,326.31,365.39ZM256,377.11a19.53,19.53,0,1,0,19.52,19.53A19.56,19.56,0,0,0,256,377.11Zm0,32.66a13.14,13.14,0,1,1,13.14-13.13A13.15,13.15,0,0,1,256,409.77ZM234.88,104.61a2.63,2.63,0,0,1,2.84-2.36h36.57a2.4,2.4,0,1,1,0,4.71H237.73A2.64,2.64,0,0,1,234.88,104.61Z" transform="translate(-6.74 -6.74)" style="fill:#fff"/></g></svg>
