<svg id="Layer_1" data-name="Layer 1" xmlns="http://www.w3.org/2000/svg" viewBox="0 0 498.53 498.53"><title>badges</title><circle id="BADGE" cx="249.26" cy="249.26" r="239.26" style="fill:none;stroke:#fff;stroke-miterlimit:10;stroke-width:20px"/><g id="Laravel"><path d="M297,404.36a5.68,5.68,0,0,1-4.87-2.76l-42.89-71.53-80.13,21.79a5.67,5.67,0,0,1-6.5-2.81L69,172.83a5.67,5.67,0,0,1,4.25-8.28l79.6-10.71a5.67,5.67,0,0,1,5.62,2.7l96.14,160.33,111.66-30.36L329,233.94a5.67,5.67,0,0,1,3.32-8.8l52.24-12.34a5.67,5.67,0,0,1,5.73,2l45.21,56.44a5.67,5.67,0,0,1-2.94,9l-47.62,12.95,41.52,58.53a5.67,5.67,0,0,1-2.75,8.63L298.9,404A5.79,5.79,0,0,1,297,404.36ZM260.64,327l38.88,64.83L412.8,352.14l-39.57-55.78ZM82.81,174.71l87.72,165L243.21,320,150.63,165.58Zm260.26,59.54,34.83,49.09,43.29-11.78-37.56-46.89Z" transform="translate(-6.74 -6.74)" style="fill:#fff"/></g></svg>
