<?xml version="1.0" encoding="utf-8"?>
<!-- Generator: Adobe Illustrator 23.1.1, SVG Export Plug-In . SVG Version: 6.00 Build 0)  -->
<svg version="1.1" id="Layer_1" xmlns="http://www.w3.org/2000/svg" xmlns:xlink="http://www.w3.org/1999/xlink" x="0px" y="0px"
	 viewBox="0 0 498.5 498.5" style="enable-background:new 0 0 498.5 498.5;" xml:space="preserve">
<style type="text/css">
	.st0{fill:none;stroke:#FFFFFF;stroke-width:20;stroke-miterlimit:10;}
	.st1{fill:#FFFFFF;}
</style>
<title>badges</title>
<circle id="BADGE" class="st0" cx="249.3" cy="249.3" r="239.3"/>
<g>
	<path class="st1" d="M234,70.1c9.1-5.2,20.9-5.2,30,0c45.6,25.8,91.3,51.5,136.9,77.3c8.6,4.8,14.3,14.4,14.2,24.3v155.1
		c0.1,10.3-6.2,20.1-15.3,24.8c-45.5,25.6-90.9,51.3-136.4,76.9c-9.3,5.3-21.3,4.9-30.3-0.8c-13.6-7.9-27.3-15.8-40.9-23.7
		c-2.8-1.7-5.9-3-7.9-5.7c1.7-2.3,4.8-2.6,7.4-3.7c5.7-1.8,10.9-4.7,16.1-7.5c1.3-0.9,2.9-0.6,4.2,0.3c11.7,6.7,23.2,13.6,34.9,20.2
		c2.5,1.4,5-0.5,7.2-1.7c44.6-25.2,89.3-50.3,133.9-75.6c1.7-0.8,2.6-2.6,2.4-4.4c0-51.2,0-102.3,0-153.5c0.2-2.1-1-3.9-2.9-4.8
		c-45.3-25.5-90.6-51.1-135.9-76.6c-1.6-1.1-3.7-1.1-5.3,0c-45.3,25.5-90.6,51.1-135.9,76.6c-1.9,0.8-3.1,2.7-2.9,4.8
		c0,51.2,0,102.3,0,153.5c-0.2,1.8,0.8,3.5,2.5,4.3c12.1,6.9,24.2,13.7,36.3,20.5c6.8,3.7,15.2,5.8,22.7,3
		c6.6-2.4,11.3-9.1,11.1-16.2c0.1-50.9,0-101.7,0-152.6c-0.2-2.3,2-4.1,4.2-3.9c5.8,0,11.6-0.1,17.4,0c2.4-0.1,4.1,2.4,3.8,4.7
		c0,51.2,0.1,102.4,0,153.6c0,13.6-5.6,28.5-18.2,35.2c-15.5,8.1-34.8,6.3-50.1-1.4c-13.3-6.6-26-14.5-39-21.6
		c-9.1-4.7-15.4-14.5-15.3-24.8V171.7c-0.1-10.1,5.9-19.8,14.7-24.6C143.1,121.5,188.5,95.8,234,70.1z"/>
	<path class="st1" d="M273.6,177.6c19.8-1.3,41.1-0.8,58.9,9c13.8,7.5,21.5,23.2,21.7,38.5c-0.4,2.1-2.6,3.2-4.5,3.1
		c-5.8,0-11.5,0.1-17.3,0c-2.4,0.1-3.9-2.2-4.2-4.3c-1.7-7.3-5.7-14.6-12.6-18.2c-10.6-5.3-22.9-5-34.5-4.9
		c-8.4,0.4-17.5,1.2-24.7,6.1c-5.5,3.8-7.2,11.4-5.2,17.5c1.8,4.4,6.9,5.8,11.1,7.1c23.9,6.3,49.2,5.6,72.7,13.9
		c9.7,3.4,19.2,9.9,22.5,20c4.3,13.6,2.4,29.9-7.2,40.8c-7.9,9-19.3,13.9-30.7,16.6c-15.2,3.4-30.9,3.5-46.4,2
		c-14.5-1.7-29.6-5.5-40.8-15.3c-9.6-8.3-14.2-21.3-13.8-33.8c0.1-2.1,2.2-3.6,4.2-3.4c5.8,0,11.6-0.1,17.4,0c2.3-0.2,4,1.8,4.1,4
		c1.1,7,3.7,14.3,9.8,18.5c11.8,7.6,26.6,7.1,40,7.3c11.2-0.5,23.7-0.6,32.8-8c4.8-4.2,6.2-11.3,4.9-17.3c-1.4-5.1-6.8-7.5-11.4-9.1
		c-23.6-7.5-49.2-4.8-72.6-13.2c-9.5-3.4-18.7-9.7-22.3-19.4c-5.1-13.8-2.8-30.8,8-41.4C244.2,183.1,259.3,179,273.6,177.6
		L273.6,177.6z"/>
</g>
</svg>
