<?xml version="1.0" encoding="utf-8"?>
<!-- Generator: Adobe Illustrator 23.1.1, SVG Export Plug-In . SVG Version: 6.00 Build 0)  -->
<svg version="1.1" id="Layer_1" xmlns="http://www.w3.org/2000/svg" xmlns:xlink="http://www.w3.org/1999/xlink" x="0px" y="0px"
	 viewBox="0 0 498.5 498.5" style="enable-background:new 0 0 498.5 498.5;" xml:space="preserve">
<style type="text/css">
	.st0{fill:none;stroke:#FFFFFF;stroke-width:20;stroke-miterlimit:10;}
	.st1{fill:#FFFFFF;}
</style>
<title>badges</title>
<circle id="BADGE" class="st0" cx="249.3" cy="249.3" r="239.3"/>
<g>
	<path class="st1" d="M442.4,249.3c0-25.6-32-49.8-81.2-64.9c11.3-50.1,6.3-89.9-15.9-102.7c-5.1-3-11.1-4.4-17.6-4.4v17.6
		c3.6,0,6.5,0.7,9,2c10.7,6.1,15.4,29.5,11.7,59.6c-0.9,7.4-2.3,15.2-4,23.1c-15.4-3.8-32.3-6.7-50-8.6
		c-10.6-14.6-21.7-27.8-32.8-39.4c25.7-23.9,49.8-36.9,66.1-36.9V77.3l0,0c-21.7,0-50,15.4-78.7,42.2c-28.7-26.6-57-41.9-78.7-41.9
		v17.6c16.3,0,40.5,13,66.1,36.7c-11,11.6-22,24.7-32.5,39.3c-17.8,1.9-34.6,4.8-50.1,8.7c-1.8-7.9-3.1-15.5-4.1-22.8
		c-3.7-30.1,0.9-53.5,11.5-59.7c2.4-1.4,5.4-2,9.1-2V77.7l0,0c-6.6,0-12.6,1.4-17.8,4.4c-22.1,12.8-27.1,52.5-15.7,102.4
		c-49,15.1-80.9,39.3-80.9,64.8c0,25.6,32,49.8,81.2,64.9c-11.3,50.1-6.3,89.9,15.9,102.7c5.1,3,11.1,4.4,17.7,4.4
		c21.7,0,50-15.4,78.7-42.2c28.7,26.6,57,41.9,78.7,41.9c6.6,0,12.6-1.4,17.8-4.4c22.1-12.8,27.1-52.5,15.7-102.4
		C410.5,299.1,442.4,274.8,442.4,249.3z M339.9,196.8c-2.9,10.2-6.5,20.6-10.6,31.1c-3.2-6.3-6.6-12.6-10.3-18.9
		c-3.6-6.3-7.5-12.4-11.3-18.4C318.8,192.2,329.6,194.3,339.9,196.8z M303.8,280.6c-6.1,10.6-12.4,20.7-19,30.1
		c-11.7,1-23.6,1.6-35.6,1.6c-11.9,0-23.8-0.6-35.4-1.5c-6.5-9.4-12.9-19.4-19.1-29.9c-6-10.3-11.4-20.8-16.4-31.3
		c4.9-10.6,10.4-21.1,16.3-31.4c6.1-10.6,12.4-20.7,19-30.1c11.7-1,23.6-1.6,35.6-1.6c11.9,0,23.8,0.6,35.4,1.5
		c6.5,9.4,12.9,19.4,19.1,29.9c6,10.3,11.4,20.8,16.4,31.3C315.2,259.8,309.7,270.3,303.8,280.6z M329.3,270.4
		c4.3,10.6,7.9,21.1,10.9,31.3c-10.3,2.5-21.2,4.6-32.4,6.3c3.9-6.1,7.7-12.3,11.3-18.7C322.6,283.1,326,276.7,329.3,270.4z
		 M249.4,354.4c-7.3-7.6-14.6-16-21.9-25.2c7.1,0.3,14.3,0.6,21.7,0.6c7.4,0,14.7-0.2,21.9-0.6C264,338.4,256.7,346.9,249.4,354.4z
		 M190.8,308c-11.2-1.7-22-3.7-32.3-6.2c2.9-10.2,6.5-20.6,10.6-31.1c3.2,6.3,6.6,12.6,10.3,18.9S187,302.1,190.8,308z M249,144.2
		c7.3,7.6,14.6,16,21.9,25.2c-7.1-0.3-14.3-0.6-21.7-0.6c-7.4,0-14.7,0.2-21.9,0.6C234.5,160.2,241.8,151.7,249,144.2z M190.8,190.6
		c-3.9,6.1-7.7,12.3-11.3,18.7c-3.6,6.3-7,12.6-10.2,18.9c-4.3-10.6-7.9-21.1-10.9-31.3C168.6,194.3,179.5,192.2,190.8,190.6z
		 M119.5,289.1c-27.9-11.9-45.9-27.5-45.9-39.8s18-28,45.9-39.8c6.8-2.9,14.2-5.5,21.8-8c4.5,15.4,10.4,31.5,17.7,48
		c-7.2,16.4-13.1,32.4-17.5,47.7C133.7,294.7,126.3,292.1,119.5,289.1z M161.9,401.7c-10.7-6.1-15.4-29.5-11.7-59.6
		c0.9-7.4,2.3-15.2,4-23.1c15.4,3.8,32.3,6.7,50,8.6c10.6,14.6,21.7,27.8,32.8,39.4c-25.7,23.9-49.8,36.9-66.1,36.9
		C167.2,403.7,164.2,403,161.9,401.7z M348.6,341.7c3.7,30.1-0.9,53.5-11.5,59.7c-2.4,1.4-5.4,2-9.1,2c-16.3,0-40.5-13-66.1-36.7
		c11-11.6,22-24.7,32.5-39.3c17.8-1.9,34.6-4.8,50.1-8.7C346.3,326.7,347.8,334.3,348.6,341.7z M378.9,289.1
		c-6.8,2.9-14.2,5.5-21.8,8c-4.5-15.4-10.4-31.5-17.7-48c7.2-16.4,13.1-32.4,17.5-47.7c7.8,2.4,15.2,5.1,22.1,8
		c27.9,11.9,45.9,27.5,45.9,39.8C424.9,261.7,406.8,277.3,378.9,289.1z"/>
	<path class="st1" d="M170.4,77.6L170.4,77.6L170.4,77.6z"/>
	<circle class="st1" cx="249.2" cy="249.3" r="36"/>
	<path class="st1" d="M327.6,77.3L327.6,77.3L327.6,77.3z"/>
</g>
</svg>
