<svg id="Layer_1" data-name="Layer 1" xmlns="http://www.w3.org/2000/svg" viewBox="0 0 356.95 356.95"><defs><style>.cls-1{fill:#f15b29;}</style></defs><title>logo</title><path class="cls-1" d="M55.34,137.83q28.13,0,46,17.48t21.32,46.89q33.24-64.37,88.66-64.37,20.6,0,34.81,8.88,21.48-8.86,40.34-8.88a90.43,90.43,0,0,1,33.46,6,70,70,0,0,1,25.58,17A73.38,73.38,0,0,1,357,176.91V0H0V158.65c2.12-1.78,4.29-3.47,6.53-5Q28.91,137.84,55.34,137.83Z"/><path class="cls-1" d="M353.85,191.76a67.6,67.6,0,0,0-14.7-24.3,66.9,66.9,0,0,0-23-15.56,77,77,0,0,0-29.63-5.54q-15.33,0-32.56,6.3a56.68,56.68,0,0,1,8.56,10.11q16.08,24.14,16.61,73.21c1.87-.07,3.77-.11,5.69-.11a241,241,0,0,1,38.79,3.2A187.2,187.2,0,0,1,357,247.49V202.78A84.08,84.08,0,0,0,353.85,191.76Z"/><path class="cls-1" d="M270.6,245a123.73,123.73,0,0,0-19.69,3.24,83.25,83.25,0,0,0-26,11.08,54.1,54.1,0,0,0-16.84,17.26,42.89,42.89,0,0,0-6,22.38A55.77,55.77,0,0,0,207,322.19a59.43,59.43,0,0,0,13.42,19,60.6,60.6,0,0,0,20,12.57,63.63,63.63,0,0,0,11.2,3.22H270.6Z"/><path class="cls-1" d="M318.9,355.87c-.85.37-1.71.73-2.57,1.08H357V327.5A100.72,100.72,0,0,1,318.9,355.87Z"/><path class="cls-1" d="M284.8,244.4c-1.92,0-3.81,0-5.68.1V357h5.12a119.3,119.3,0,0,0,33.17-9.4Q341.07,336.9,352.57,319a38.52,38.52,0,0,0,4.38-7.77V256.86Q323.68,244.43,284.8,244.4Z"/><path class="cls-1" d="M101.8,168.74Q87.73,146.36,57,146.36a78,78,0,0,0-29.2,5.54A85.88,85.88,0,0,0,2.69,167.46C1.78,168.27.89,169.1,0,170V357H115.86V239.28Q115.86,191.13,101.8,168.74Z"/><path class="cls-1" d="M199.12,325.39A63.77,63.77,0,0,1,193.58,299a50.36,50.36,0,0,1,6.61-25.57,60.43,60.43,0,0,1,18.75-19.83,97.47,97.47,0,0,1,29-13,128.19,128.19,0,0,1,22.66-4.06q-.39-45.62-14.26-67.55a47.58,47.58,0,0,0-11.44-12.61,179.69,179.69,0,0,0-30,17.3l-5.11-6.82a221.72,221.72,0,0,1,26.47-15.61q-10.69-4.85-24.9-4.85a76.58,76.58,0,0,0-29.63,5.75,87,87,0,0,0-25.15,16A103.5,103.5,0,0,0,137,192.4a116.63,116.63,0,0,0-12.58,30.69V357h103.4a67.64,67.64,0,0,1-28.67-31.56Z"/></svg>