<?xml version="1.0" encoding="utf-8"?>
<!-- Generator: Adobe Illustrator 26.0.2, SVG Export Plug-In . SVG Version: 6.00 Build 0)  -->
<svg version="1.1" id="Capa_1" xmlns="http://www.w3.org/2000/svg" xmlns:xlink="http://www.w3.org/1999/xlink" x="0px" y="0px"
	 viewBox="0 0 612 612" style="enable-background:new 0 0 612 612;" xml:space="preserve">
<style type="text/css">
	.st0{fill:#FFFFFF;}
</style>
<path class="st0" d="M596.3,160.4c-7.6-24.7-26.6-45.5-53.1-53.1C495.7,94,306,94,306,94s-189.7,0-237.2,13.3
	c-26.6,7.6-45.5,26.6-53.1,53.1C6.2,207.8,2.4,257.2,2.4,306.5s3.8,98.7,13.3,146.1c7.6,24.7,26.6,45.5,53.1,53.1
	C116.3,519,306,519,306,519s189.7,0,237.2-13.3c26.6-7.6,45.5-26.6,53.1-53.1c9.5-47.4,13.3-96.8,13.3-146.1
	S605.8,207.8,596.3,160.4z M245.3,397.6V215.4l157.5,91.1L245.3,397.6z"/>
</svg>
